<?xml version="1.0" encoding="utf-8"?>
<!-- Generator: Adobe Illustrator 25.2.3, SVG Export Plug-In . SVG Version: 6.00 Build 0)  -->
<svg version="1.1" id="Layer_1" xmlns="http://www.w3.org/2000/svg" xmlns:xlink="http://www.w3.org/1999/xlink" x="0px" y="0px"
	 viewBox="0 0 25 15" style="enable-background:new 0 0 25 15;" xml:space="preserve">
<style type="text/css">
	.st0{fill:#FFFFFF;fill-opacity:0;}
	.st1{fill:#FFFFFF;}
</style>
<rect x="-4.5" y="-4.5" class="st0" width="24" height="24"/>
<path class="st1" d="M6,13.5c-0.3,0-0.6-0.1-0.9-0.2c-0.6-0.3-1-0.9-1-1.6V3.3c0-0.7,0.4-1.3,1-1.6C5.8,1.4,6.6,1.5,7.3,2l5.1,4.2
	c0.7,0.6,0.9,1.7,0.3,2.4c0,0,0,0,0,0c-0.1,0.1-0.2,0.2-0.3,0.3L7.3,13C6.9,13.3,6.5,13.5,6,13.5z"/>
</svg>
