<?xml version="1.0" encoding="utf-8"?>
<!-- Generator: Adobe Illustrator 25.2.3, SVG Export Plug-In . SVG Version: 6.00 Build 0)  -->
<svg version="1.1" id="Layer_1" xmlns="http://www.w3.org/2000/svg" xmlns:xlink="http://www.w3.org/1999/xlink" x="0px" y="0px"
	 viewBox="0 0 25 15" style="enable-background:new 0 0 25 15;" xml:space="preserve">
<style type="text/css">
	.st0{fill:#FFFFFF;fill-opacity:0;}
	.st1{fill:#FFFFFF;}
</style>
<rect x="-4.5" y="-4.5" class="st0" width="24" height="24"/>
<path class="st1" d="M1.5,6c0-0.3,0.1-0.6,0.2-0.9C2,4.4,2.6,4,3.3,4h8.4c0.7,0,1.3,0.4,1.6,1c0.4,0.7,0.2,1.6-0.3,2.3l-4.2,5.1
	c-0.6,0.7-1.7,0.9-2.4,0.3c0,0,0,0,0,0c-0.1-0.1-0.2-0.2-0.3-0.3L2,7.3C1.7,6.9,1.5,6.5,1.5,6z"/>
</svg>
