<?xml version="1.0" encoding="utf-8"?>
<!-- Generator: Adobe Illustrator 25.3.1, SVG Export Plug-In . SVG Version: 6.00 Build 0)  -->
<svg version="1.1" id="Layer_1" xmlns="http://www.w3.org/2000/svg" xmlns:xlink="http://www.w3.org/1999/xlink" x="0px" y="0px"
	 viewBox="0 0 28 18" style="enable-background:new 0 0 28 18;" xml:space="preserve">
<style type="text/css">
	.st0{fill:#009390;}
</style>
<path class="st0" d="M9.5,10.7c0.5,0,0.9-0.4,0.9-0.9S10,9,9.5,9S8.6,9.4,8.6,9.9l0,0C8.6,10.4,9,10.7,9.5,10.7z M13.8,10.7
	c0.5,0,0.9-0.4,0.9-0.9S14.3,9,13.8,9S13,9.4,13,9.9l0,0C13,10.3,13.3,10.7,13.8,10.7L13.8,10.7z M9.5,14.2c0.5,0,0.9-0.4,0.9-0.9
	s-0.4-0.9-0.9-0.9s-0.9,0.4-0.9,0.9l0,0C8.6,13.8,9,14.2,9.5,14.2z M13.8,14.2c0.5,0,0.9-0.4,0.9-0.9s-0.4-0.9-0.9-0.9
	S13,12.9,13,13.3l0,0C13,13.8,13.3,14.2,13.8,14.2L13.8,14.2z M5.2,10.7c0.5,0,0.9-0.4,0.9-0.9C6,9.4,5.6,9,5.2,9S4.3,9.4,4.3,9.9
	l0,0C4.3,10.4,4.7,10.7,5.2,10.7z M15.6,2.1h-0.9V1.2c0-0.5-0.4-0.9-0.9-0.9s-0.9,0.4-0.9,0.9v0.9H6V1.2c0-0.5-0.4-0.9-0.9-0.9
	S4.2,0.7,4.2,1.2v0.9H3.4C2,2.1,0.8,3.2,0.8,4.7l0,0v10.4c0,1.4,1.2,2.6,2.6,2.6h12.1c1.4,0,2.6-1.2,2.6-2.6l0,0V4.7
	C18.2,3.2,17,2.1,15.6,2.1L15.6,2.1z M16.4,15.1c0,0.5-0.4,0.9-0.9,0.9H3.4c-0.5,0-0.9-0.4-0.9-0.9l0,0V7.3h13.9V15.1z M16.4,5.5
	H2.6V4.7c0-0.5,0.4-0.9,0.8-0.9l0,0h12.1c0.5,0,0.9,0.4,0.9,0.9l0,0V5.5z M5.2,14.2c0.5,0,0.9-0.4,0.9-0.9s-0.4-0.9-0.9-0.9
	s-0.9,0.4-0.9,0.9l0,0C4.3,13.8,4.7,14.2,5.2,14.2z"/>
</svg>
