<?xml version="1.0" encoding="utf-8"?>
<!-- Generator: Adobe Illustrator 25.3.1, SVG Export Plug-In . SVG Version: 6.00 Build 0)  -->
<svg version="1.1" id="Layer_1" xmlns="http://www.w3.org/2000/svg" xmlns:xlink="http://www.w3.org/1999/xlink" x="0px" y="0px"
	 viewBox="0 0 28 18" style="enable-background:new 0 0 28 18;" xml:space="preserve">
<style type="text/css">
	.st0{fill:#009390;}
</style>
<path class="st0" d="M12.2,9.6l-1.8-1.1V4.7c0-0.5-0.4-0.9-0.9-0.9C9,3.8,8.6,4.2,8.6,4.7V9c0,0.3,0.2,0.6,0.4,0.8l2.2,1.3
	c0.4,0.2,1,0,1.2-0.4C12.7,10.3,12.5,9.8,12.2,9.6z M9.5,0.3C4.7,0.3,0.8,4.2,0.8,9s3.9,8.7,8.7,8.7s8.7-3.9,8.7-8.7
	S14.3,0.3,9.5,0.3L9.5,0.3z M9.5,15.9c-3.8,0-6.9-3.1-6.9-6.9s3.1-6.9,6.9-6.9s6.9,3.1,6.9,6.9S13.3,15.9,9.5,15.9L9.5,15.9z"/>
</svg>
