<?xml version="1.0" encoding="utf-8"?>
<!-- Generator: Adobe Illustrator 25.3.1, SVG Export Plug-In . SVG Version: 6.00 Build 0)  -->
<svg version="1.1" id="Layer_1" xmlns="http://www.w3.org/2000/svg" xmlns:xlink="http://www.w3.org/1999/xlink" x="0px" y="0px"
	 viewBox="0 0 22 22" style="enable-background:new 0 0 22 22;" xml:space="preserve">
<style type="text/css">
	.st0{fill:#009390;}
</style>
<path class="st0" d="M12.4,11l4.3-4.3c0.4-0.4,0.4-1,0-1.4s-1-0.4-1.4,0L11,9.6L6.7,5.3c-0.4-0.4-1-0.4-1.4,0s-0.4,1,0,1.4L9.6,11
	l-4.3,4.3c-0.4,0.4-0.4,1,0,1.4l0,0c0.4,0.4,1,0.4,1.4,0l0,0l4.3-4.3l4.3,4.3c0.4,0.4,1,0.4,1.4,0l0,0c0.4-0.4,0.4-1,0-1.4
	c0,0,0,0,0,0l0,0L12.4,11z"/>
</svg>
