<?xml version="1.0" encoding="utf-8"?>
<!-- Generator: Adobe Illustrator 25.3.1, SVG Export Plug-In . SVG Version: 6.00 Build 0)  -->
<svg version="1.1" id="Layer_1" xmlns="http://www.w3.org/2000/svg" xmlns:xlink="http://www.w3.org/1999/xlink" x="0px" y="0px"
	 viewBox="0 0 22 22" style="enable-background:new 0 0 22 22;" xml:space="preserve">
<style type="text/css">
	.st0{fill:#009390;}
</style>
<path class="st0" d="M9,17c0.6,0,1-0.4,1-1v-6c0-0.6-0.4-1-1-1s-1,0.4-1,1v6C8,16.6,8.4,17,9,17z M19,5h-4V4c0-1.7-1.3-3-3-3h-2
	C8.3,1,7,2.3,7,4v1H3C2.4,5,2,5.4,2,6s0.4,1,1,1h1v11c0,1.7,1.3,3,3,3h8c1.7,0,3-1.3,3-3V7h1c0.6,0,1-0.4,1-1S19.6,5,19,5z M9,4
	c0-0.6,0.4-1,1-1h2c0.6,0,1,0.4,1,1v1H9V4z M16,18c0,0.6-0.4,1-1,1H7c-0.6,0-1-0.4-1-1V7h10V18z M13,17c0.6,0,1-0.4,1-1v-6
	c0-0.6-0.4-1-1-1s-1,0.4-1,1v6C12,16.6,12.4,17,13,17z"/>
</svg>
