<?xml version="1.0" encoding="utf-8"?>
<!-- Generator: Adobe Illustrator 25.3.1, SVG Export Plug-In . SVG Version: 6.00 Build 0)  -->
<svg version="1.1" id="Layer_1" xmlns="http://www.w3.org/2000/svg" xmlns:xlink="http://www.w3.org/1999/xlink" x="0px" y="0px"
	 viewBox="0 0 22 22" style="enable-background:new 0 0 22 22;" xml:space="preserve">
<style type="text/css">
	.st0{fill:#009390;}
</style>
<path class="st0" d="M4,17h4.2c0.3,0,0.6-0.1,0.8-0.3l6.9-6.9l0,0L18.7,7c0.4-0.4,0.4-1,0-1.4l0,0l-4.2-4.3c-0.4-0.4-1-0.4-1.4,0
	l0,0l-2.8,2.8l0,0l-6.9,6.9C3.1,11.2,3,11.5,3,11.8V16C3,16.6,3.4,17,4,17z M13.8,3.4l2.8,2.8l-1.4,1.4l-2.8-2.8L13.8,3.4z M5,12.2
	l5.9-5.9l2.8,2.8L7.8,15H5V12.2z M20,19H2c-0.6,0-1,0.4-1,1s0.4,1,1,1h18c0.6,0,1-0.4,1-1S20.6,19,20,19z"/>
</svg>
