<?xml version="1.0" encoding="utf-8"?>
<!-- Generator: Adobe Illustrator 25.3.1, SVG Export Plug-In . SVG Version: 6.00 Build 0)  -->
<svg version="1.1" id="Layer_1" xmlns="http://www.w3.org/2000/svg" xmlns:xlink="http://www.w3.org/1999/xlink" x="0px" y="0px"
	 viewBox="0 0 22 22" style="enable-background:new 0 0 22 22;" xml:space="preserve">
<style type="text/css">
	.st0{fill:#009390;fill-opacity:0;}
	.st1{fill:#009390;}
</style>
<rect x="-1" y="-1" class="st0" width="24" height="24"/>
<path class="st1" d="M8,2H4C2.9,2,2,2.9,2,4v4c0,1.1,0.9,2,2,2h4c1.1,0,2-0.9,2-2V4C10,2.9,9.1,2,8,2z M4,8V4h4v4H4z"/>
<path class="st1" d="M18,2h-4c-1.1,0-2,0.9-2,2v4c0,1.1,0.9,2,2,2h4c1.1,0,2-0.9,2-2V4C20,2.9,19.1,2,18,2z M14,8V4h4v4H14z"/>
<path class="st1" d="M8,12H4c-1.1,0-2,0.9-2,2v4c0,1.1,0.9,2,2,2h4c1.1,0,2-0.9,2-2v-4C10,12.9,9.1,12,8,12z M4,18v-4h4v4H4z"/>
<path class="st1" d="M18,12h-4c-1.1,0-2,0.9-2,2v4c0,1.1,0.9,2,2,2h4c1.1,0,2-0.9,2-2v-4C20,12.9,19.1,12,18,12z M14,18v-4h4v4H14z"
	/>
</svg>
