<svg id="Layer_1" data-name="Layer 1" xmlns="http://www.w3.org/2000/svg" viewBox="0 0 22 22"><defs><style>.cls-1{fill:#009390;}</style></defs><path class="cls-1" d="M19.72,15.71,17.3,13.29a1,1,0,0,0-1.41,0h0L12.3,16.87a1,1,0,0,0-.29.71V20a1,1,0,0,0,1,1h2.42a1,1,0,0,0,.71-.29l3.58-3.58A1.07,1.07,0,0,0,19.72,15.71ZM15,19H14V18l2.58-2.58,1,1ZM9,19H5a1,1,0,0,1-1-1V4A1,1,0,0,1,5,3h5V6a3,3,0,0,0,3,3h3v1a1,1,0,0,0,2,0V7.94A1.31,1.31,0,0,0,18,7.67V7.58a1.07,1.07,0,0,0-.19-.28h0l-6-6h0a1.07,1.07,0,0,0-.28-.19h-.09L11.07,1H5A3,3,0,0,0,2,4V18a3,3,0,0,0,3,3H9a1,1,0,0,0,0-2ZM12,4.41,14.6,7H13a1,1,0,0,1-1-1ZM7,13h6a1,1,0,0,0,0-2H7a1,1,0,1,0,0,2ZM7,9H8A1,1,0,0,0,8,7H7A1,1,0,0,0,7,9Zm2,6H7a1,1,0,1,0,0,2H9a1,1,0,0,0,0-2Z"/></svg>