<svg id="Layer_1" data-name="Layer 1" xmlns="http://www.w3.org/2000/svg" viewBox="0 0 22 22"><defs><style>.cls-1{fill:#009390;}</style></defs><path class="cls-1" d="M9.5,19h-5a1,1,0,0,1-1-1V4a1,1,0,0,1,1-1h5V6a3,3,0,0,0,3,3h3a1,1,0,0,0,2,0V7.94a1.31,1.31,0,0,0-.06-.27V7.58a1.07,1.07,0,0,0-.19-.28h0l-6-6h0A1.07,1.07,0,0,0,11,1.11h-.09L10.56,1H4.5a3,3,0,0,0-3,3V18a3,3,0,0,0,3,3h5a1,1,0,0,0,0-2Zm2-14.59L14.09,7H12.5a1,1,0,0,1-1-1ZM6.5,7a1,1,0,0,0,0,2h1a1,1,0,0,0,0-2Zm13.63,5.86a1,1,0,0,0-.84-.2,2.77,2.77,0,0,1-2.2-.47,1,1,0,0,0-1.18,0,2.77,2.77,0,0,1-2.2.47,1,1,0,0,0-1.19.77,1.64,1.64,0,0,0,0,.23V16a4.61,4.61,0,0,0,1.84,3.69L15.9,20.8a1,1,0,0,0,1.2,0l1.56-1.16A4.59,4.59,0,0,0,20.5,16V13.63A1,1,0,0,0,20.13,12.86ZM18.5,16a2.62,2.62,0,0,1-1,2.09l-1,.72-1-.72a2.62,2.62,0,0,1-1-2.09V14.72a4.68,4.68,0,0,0,2-.55,4.68,4.68,0,0,0,2,.55Zm-9-.95h-3a1,1,0,0,0,0,2h3a1,1,0,0,0,0-2Zm1-4h-4a1,1,0,0,0,0,2h4a1,1,0,0,0,0-2Z"/></svg>