<?xml version="1.0" encoding="utf-8"?>
<!-- Generator: Adobe Illustrator 25.2.3, SVG Export Plug-In . SVG Version: 6.00 Build 0)  -->
<svg version="1.1" id="Layer_1" xmlns="http://www.w3.org/2000/svg" xmlns:xlink="http://www.w3.org/1999/xlink" x="0px" y="0px"
	 viewBox="0 0 22 22" style="enable-background:new 0 0 22 22;" xml:space="preserve">
<style type="text/css">
	.st0{fill:#FFFFFF;}
</style>
<path class="st0" d="M11,1C5.5,1,1,5.5,1,11c0,2.5,0.9,4.9,2.6,6.8l0,0c3.7,4.1,10.1,4.3,14.1,0.6c0.2-0.2,0.4-0.4,0.6-0.6l0,0
	c3.7-4.1,3.5-10.4-0.6-14.1C15.9,1.9,13.5,1,11,1z M11,19c-2.1,0-4.1-0.8-5.6-2.2c1.3-3.1,4.8-4.5,7.8-3.3c1.5,0.6,2.7,1.8,3.3,3.3
	C15.1,18.2,13.1,19,11,19z M9,9c0-1.1,0.9-2,2-2s2,0.9,2,2s-0.9,2-2,2S9,10.1,9,9z M17.9,15c-0.9-1.5-2.3-2.7-3.9-3.4
	c1.5-1.7,1.3-4.2-0.4-5.6S9.5,4.7,8,6.3c-1.3,1.5-1.3,3.8,0,5.3c-1.6,0.7-3,1.8-3.9,3.4C3.4,13.8,3,12.4,3,11c0-4.4,3.6-8,8-8
	s8,3.6,8,8C19,12.4,18.6,13.8,17.9,15z"/>
</svg>
