<svg id="Layer_1" data-name="Layer 1" xmlns="http://www.w3.org/2000/svg" viewBox="0 0 22 22"><defs><style>.cls-1{fill:#fff;}</style></defs><path class="cls-1" d="M15,19H7a3,3,0,0,1-3-3V6A1,1,0,0,0,2,6V16a5,5,0,0,0,5,5h8a1,1,0,0,0,0-2ZM9,12a1,1,0,0,0,1,1h5a1,1,0,0,0,0-2H10A1,1,0,0,0,9,12ZM20,7.94a1.31,1.31,0,0,0-.06-.27V7.58a1.07,1.07,0,0,0-.19-.28h0l-6-6h0a1.07,1.07,0,0,0-.28-.19h-.09A.76.76,0,0,0,13.05,1H9A3,3,0,0,0,6,4V14a3,3,0,0,0,3,3h8a3,3,0,0,0,3-3V7.94ZM14,4.41,16.59,7H15a1,1,0,0,1-1-1ZM18,14a1,1,0,0,1-1,1H9a1,1,0,0,1-1-1V4A1,1,0,0,1,9,3h3V6a2.85,2.85,0,0,0,.18,1H10a1,1,0,0,0,0,2h8Z"/></svg>