<svg id="Layer_1" data-name="Layer 1" xmlns="http://www.w3.org/2000/svg" viewBox="0 0 22 22"><defs><style>.cls-1{fill:#009390;}</style></defs><path class="cls-1" d="M11,11a3,3,0,1,0,3,3A3,3,0,0,0,11,11Zm0,4a1,1,0,1,1,1-1A1,1,0,0,1,11,15Zm-.71-6.29a1.15,1.15,0,0,0,.33.21.92.92,0,0,0,.76,0,1.15,1.15,0,0,0,.33-.21L14,6.46A1,1,0,0,0,12.54,5L12,5.59V2a1,1,0,0,0-2,0V5.59L9.46,5A1,1,0,0,0,8,6.46ZM18,14a1,1,0,1,0-1,1A1,1,0,0,0,18,14Zm1-7H16a1,1,0,0,0,0,2h3a1,1,0,0,1,1,1v8a1,1,0,0,1-1,1H3a1,1,0,0,1-1-1V10A1,1,0,0,1,3,9H6A1,1,0,0,0,6,7H3a3,3,0,0,0-3,3v8a3,3,0,0,0,3,3H19a3,3,0,0,0,3-3V10A3,3,0,0,0,19,7ZM4,14a1,1,0,1,0,1-1A1,1,0,0,0,4,14Z"/></svg>