<svg id="Layer_1" data-name="Layer 1" xmlns="http://www.w3.org/2000/svg" viewBox="0 0 22 22"><defs><style>.cls-1{fill:#fff;}</style></defs><path class="cls-1" d="M11.3,11.22A4.91,4.91,0,0,0,13,7.5a5,5,0,0,0-10,0,4.91,4.91,0,0,0,1.7,3.72A8,8,0,0,0,0,18.5a1,1,0,0,0,2,0,6,6,0,0,1,12,0,1,1,0,0,0,2,0A8,8,0,0,0,11.3,11.22ZM8,10.5a3,3,0,1,1,3-3A3,3,0,0,1,8,10.5Zm9.74.32A5,5,0,0,0,14,2.5a1,1,0,0,0,0,2,3,3,0,0,1,1.5,5.59,1,1,0,0,0-.5.84,1,1,0,0,0,.45.86l.39.26.13.07a7,7,0,0,1,4,6.38,1,1,0,0,0,2,0A9,9,0,0,0,17.74,10.82Z"/></svg>