<svg id="Layer_1" data-name="Layer 1" xmlns="http://www.w3.org/2000/svg" viewBox="0 0 22 22"><defs><style>.cls-1{fill:#fff;}</style></defs><path class="cls-1" d="M12.82,8.27H9.18a.91.91,0,0,0-.91.91V20.09a.91.91,0,0,0,.91.91h3.64a.91.91,0,0,0,.91-.91V9.18A.91.91,0,0,0,12.82,8.27Zm-.91,10.91H10.09V10.09h1.82ZM20.09,1H16.45a.9.9,0,0,0-.9.91V20.09a.9.9,0,0,0,.9.91h3.64a.91.91,0,0,0,.91-.91V1.91A.91.91,0,0,0,20.09,1Zm-.91,18.18H17.36V2.82h1.82ZM5.55,13.73H1.91a.91.91,0,0,0-.91.91v5.45a.91.91,0,0,0,.91.91H5.55a.9.9,0,0,0,.9-.91V14.64A.9.9,0,0,0,5.55,13.73Zm-.91,5.45H2.82V15.55H4.64Z"/></svg>