<svg id="Layer_1" data-name="Layer 1" xmlns="http://www.w3.org/2000/svg" viewBox="0 0 50 50"><defs><style>.cls-1{fill:#f6a21d;}</style></defs><path class="cls-1" d="M25,7.63a15.12,15.12,0,0,0-3.85,29.79L25,42.37l3.85-4.95A15.12,15.12,0,0,0,25,7.63Zm-.7,23.44a.8.8,0,0,1-1.2.8l-6.6-3.3a2.45,2.45,0,0,1-1.2-2V20.23a.8.8,0,0,1,1.2-.8l6.6,3.25a2.45,2.45,0,0,1,1.2,2ZM24,21.68l-6.4-3.2c-.65-.35-.65-.9,0-1.2l6.4-3.2a3,3,0,0,1,2.45,0l6.4,3.2c.65.35.65.9,0,1.2l-6.4,3.2A2.65,2.65,0,0,1,24,21.68Zm10.7,4.89a2.6,2.6,0,0,1-1.2,2l-6.65,3.2c-.65.35-1.2,0-1.2-.8V24.73a2.6,2.6,0,0,1,1.2-2l6.65-3.25c.65-.35,1.2,0,1.2.8Z"/></svg>