<?xml version="1.0" encoding="utf-8"?>
<!-- Generator: Adobe Illustrator 25.3.1, SVG Export Plug-In . SVG Version: 6.00 Build 0)  -->
<svg version="1.1" id="Layer_1" xmlns="http://www.w3.org/2000/svg" xmlns:xlink="http://www.w3.org/1999/xlink" x="0px" y="0px"
	 viewBox="0 0 30 22" style="enable-background:new 0 0 30 22;" xml:space="preserve">
<style type="text/css">
	.st0{fill:#009390;}
</style>
<path class="st0" d="M14,11.6c2.1-1.6,2.5-4.7,0.8-6.8S10.1,2.3,8,4s-2.5,4.7-0.8,6.8c0.2,0.3,0.5,0.6,0.8,0.8
	c-2.8,1.1-4.7,3.6-5,6.6c-0.1,0.4,0.2,0.8,0.7,0.9s0.8-0.2,0.9-0.7c0.4-3.6,3.6-6.2,7.1-5.8c3,0.3,5.3,2.7,5.8,5.8
	c0.1,0.4,0.4,0.7,0.8,0.7h0.1c0.4-0.1,0.7-0.5,0.7-0.9C18.8,15.2,16.8,12.7,14,11.6z M11,11c-1.8,0-3.2-1.5-3.2-3.2S9.2,4.5,11,4.5
	s3.2,1.5,3.2,3.2S12.8,11,11,11z"/>
</svg>
