<?xml version="1.0" encoding="utf-8"?>
<!-- Generator: Adobe Illustrator 25.3.1, SVG Export Plug-In . SVG Version: 6.00 Build 0)  -->
<svg version="1.1" id="Layer_1" xmlns="http://www.w3.org/2000/svg" xmlns:xlink="http://www.w3.org/1999/xlink" x="0px" y="0px"
	 viewBox="0 0 30 22" style="enable-background:new 0 0 30 22;" xml:space="preserve">
<style type="text/css">
	.st0{fill:#009390;}
</style>
<path class="st0" d="M11,11.8c-0.5,0-0.8,0.3-0.8,0.8V15c0,0.5,0.3,0.8,0.8,0.8s0.8-0.3,0.8-0.8v-2.4C11.8,12.1,11.5,11.8,11,11.8z
	 M15.1,8.6V6.9c0-2.3-1.8-4-4.1-4s-4.1,1.8-4.1,4v1.6c-1.4,0-2.4,1.1-2.4,2.4v5.7C4.5,18,5.6,19,6.9,19H15c1.4,0,2.4-1.1,2.4-2.4V11
	C17.5,9.6,16.4,8.6,15.1,8.6z M8.6,6.9c0-1.4,1.1-2.4,2.4-2.4s2.4,1.1,2.4,2.4v1.6H8.6V6.9z M15.9,16.7c0,0.5-0.3,0.8-0.8,0.8H6.9
	c-0.5,0-0.8-0.3-0.8-0.8V11c0-0.5,0.3-0.8,0.8-0.8H15c0.5,0,0.8,0.3,0.8,0.8L15.9,16.7L15.9,16.7z"/>
</svg>
