<?xml version="1.0" encoding="utf-8"?>
<!-- Generator: Adobe Illustrator 25.3.1, SVG Export Plug-In . SVG Version: 6.00 Build 0)  -->
<svg version="1.1" id="Layer_1" xmlns="http://www.w3.org/2000/svg" xmlns:xlink="http://www.w3.org/1999/xlink" x="0px" y="0px"
	 viewBox="0 0 24 24" style="enable-background:new 0 0 24 24;" xml:space="preserve">
<style type="text/css">
	.st0{fill:#009390;fill-opacity:0;}
	.st1{fill:#009390;}
</style>
<rect x="-2.9" y="-2.9" class="st0" width="30" height="30"/>
<path class="st1" d="M2.1,10.8h20.1c0.7,0,1.2,0.5,1.2,1.2v0.1c0,0.7-0.5,1.2-1.2,1.2H2.1c-0.7,0-1.2-0.5-1.2-1.2V12
	C0.9,11.4,1.4,10.8,2.1,10.8z"/>
<path class="st1" d="M2.1,17.1h20.1c0.7,0,1.2,0.5,1.2,1.2v0.1c0,0.7-0.5,1.2-1.2,1.2H2.1c-0.7,0-1.2-0.5-1.2-1.2v-0.1
	C0.9,17.6,1.4,17.1,2.1,17.1z"/>
<path class="st1" d="M2.1,4.6h20.1c0.7,0,1.2,0.5,1.2,1.2v0.1c0,0.7-0.5,1.2-1.2,1.2H2.1c-0.7,0-1.2-0.5-1.2-1.2V5.8
	C0.9,5.1,1.4,4.6,2.1,4.6z"/>
</svg>
