<?xml version="1.0" encoding="utf-8"?>
<!-- Generator: Adobe Illustrator 25.2.3, SVG Export Plug-In . SVG Version: 6.00 Build 0)  -->
<svg version="1.1" id="Layer_1" xmlns="http://www.w3.org/2000/svg" xmlns:xlink="http://www.w3.org/1999/xlink" x="0px" y="0px"
	 viewBox="0 0 30 22" style="enable-background:new 0 0 30 22;" xml:space="preserve">
<style type="text/css">
	.st0{fill:#4897D8;}
</style>
<path class="st0" d="M16.7,4.5H5.3C4,4.5,2.9,5.6,2.9,6.9V15c0,1.4,1.1,2.4,2.4,2.4h11.3c1.4,0,2.4-1.1,2.4-2.4V6.9
	C19.1,5.6,18,4.5,16.7,4.5z M16.3,6.1l-4.8,4.8c-0.3,0.3-0.8,0.3-1.1,0l0,0L5.7,6.1H16.3z M17.5,15.1c0,0.5-0.3,0.8-0.8,0.8H5.3
	c-0.5,0-0.8-0.3-0.8-0.8V7.3l4.8,4.8c1,1,2.5,1,3.4,0l4.8-4.8V15.1z"/>
</svg>
